<svg width="148" height="50" viewBox="0 0 148 50" fill="none" xmlns="http://www.w3.org/2000/svg">
<path d="M107 37.7262C107 36.68 107.91 35.8662 108.949 35.9821L140.251 39.4722C144.227 39.9156 147.591 36.5622 147.161 32.5845C146.713 28.4523 142.434 25.8984 138.584 27.4668L109.417 39.3513C108.263 39.8216 107 38.9725 107 37.7262Z" fill="url(#paint0_linear_104_29)"/>
<path d="M8.2 28.52V23.4H13.6C14.7733 23.4 15.6667 23.12 16.28 22.56C16.92 21.9733 17.24 21.1867 17.24 20.2C17.24 19.24 16.92 18.4667 16.28 17.88C15.6667 17.2667 14.7733 16.96 13.6 16.96H8.2V11.64H14.6C16.52 11.64 18.2 12 19.64 12.72C21.1067 13.44 22.2533 14.4267 23.08 15.68C23.9067 16.9333 24.32 18.4 24.32 20.08C24.32 21.76 23.8933 23.24 23.04 24.52C22.2133 25.7733 21.0533 26.76 19.56 27.48C18.0667 28.1733 16.32 28.52 14.32 28.52H8.2ZM2.52 40V11.64H9.68V40H2.52ZM17.88 40L9.64 27.84L16.08 26.28L26.16 40H17.88ZM36.3878 40.44C34.2811 40.44 32.4011 40 30.7478 39.12C29.1211 38.2133 27.8278 36.9867 26.8678 35.44C25.9078 33.8667 25.4278 32.1067 25.4278 30.16C25.4278 28.2133 25.8945 26.48 26.8278 24.96C27.7878 23.4133 29.0945 22.2 30.7478 21.32C32.4011 20.4133 34.2678 19.96 36.3478 19.96C38.4278 19.96 40.2811 20.4133 41.9078 21.32C43.5611 22.2 44.8678 23.4133 45.8278 24.96C46.7878 26.48 47.2678 28.2133 47.2678 30.16C47.2678 32.1067 46.7878 33.8667 45.8278 35.44C44.8945 36.9867 43.6011 38.2133 41.9478 39.12C40.3211 40 38.4678 40.44 36.3878 40.44ZM36.3478 34.24C37.1211 34.24 37.7878 34.08 38.3478 33.76C38.9345 33.4133 39.3878 32.9333 39.7078 32.32C40.0278 31.7067 40.1878 31 40.1878 30.2C40.1878 29.4 40.0145 28.7067 39.6678 28.12C39.3478 27.5067 38.9078 27.04 38.3478 26.72C37.7878 26.3733 37.1211 26.2 36.3478 26.2C35.6011 26.2 34.9345 26.3733 34.3478 26.72C33.7611 27.0667 33.3078 27.5467 32.9878 28.16C32.6678 28.7467 32.5078 29.44 32.5078 30.24C32.5078 31.0133 32.6678 31.7067 32.9878 32.32C33.3078 32.9333 33.7611 33.4133 34.3478 33.76C34.9345 34.08 35.6011 34.24 36.3478 34.24ZM58.1891 40.44C56.3491 40.44 54.7091 40.08 53.2691 39.36C51.8557 38.6133 50.7357 37.5867 49.9091 36.28C49.1091 34.9467 48.7091 33.44 48.7091 31.76V20.44H55.6691V31.76C55.6691 32.2933 55.7757 32.76 55.9891 33.16C56.2024 33.56 56.4957 33.8667 56.8691 34.08C57.2424 34.2933 57.6824 34.4 58.1891 34.4C58.9357 34.4 59.5357 34.16 59.9891 33.68C60.4691 33.2 60.7091 32.56 60.7091 31.76V20.44H67.6691V31.76C67.6691 33.4667 67.2691 34.9733 66.4691 36.28C65.6691 37.5867 64.5491 38.6133 63.1091 39.36C61.6957 40.08 60.0557 40.44 58.1891 40.44ZM83.1012 40V28.96C83.1012 28.0533 82.8346 27.3467 82.3012 26.84C81.7679 26.3067 81.0879 26.04 80.2612 26.04C79.7012 26.04 79.1946 26.16 78.7412 26.4C78.3146 26.64 77.9812 26.9733 77.7412 27.4C77.5012 27.8267 77.3812 28.3467 77.3812 28.96L74.6612 27.68C74.6612 26.1067 75.0079 24.76 75.7012 23.64C76.3946 22.4933 77.3412 21.6133 78.5412 21C79.7679 20.36 81.1546 20.04 82.7012 20.04C84.1146 20.04 85.3679 20.3733 86.4612 21.04C87.5812 21.68 88.4612 22.5467 89.1012 23.64C89.7413 24.7333 90.0613 25.9733 90.0613 27.36V40H83.1012ZM70.4212 40V20.44H77.3812V40H70.4212ZM101.102 40.4C99.2882 40.4 97.6749 39.96 96.2616 39.08C94.8482 38.2 93.7416 37 92.9416 35.48C92.1416 33.9333 91.7416 32.1867 91.7416 30.24C91.7416 28.2667 92.1416 26.5067 92.9416 24.96C93.7416 23.4133 94.8482 22.2133 96.2616 21.36C97.6749 20.48 99.2882 20.04 101.102 20.04C102.328 20.04 103.448 20.2667 104.462 20.72C105.475 21.1467 106.302 21.76 106.942 22.56C107.608 23.36 108.008 24.2667 108.142 25.28V35.12C108.008 36.16 107.608 37.08 106.942 37.88C106.302 38.6533 105.475 39.2667 104.462 39.72C103.448 40.1733 102.328 40.4 101.102 40.4ZM102.582 34.2C103.728 34.2 104.648 33.8267 105.342 33.08C106.062 32.3333 106.422 31.3733 106.422 30.2C106.422 29.4267 106.262 28.7467 105.942 28.16C105.622 27.5733 105.168 27.1067 104.582 26.76C104.022 26.4133 103.368 26.24 102.622 26.24C101.875 26.24 101.208 26.4133 100.622 26.76C100.062 27.1067 99.6082 27.5867 99.2616 28.2C98.9416 28.7867 98.7816 29.4533 98.7816 30.2C98.7816 30.9733 98.9416 31.6667 99.2616 32.28C99.5816 32.8667 100.035 33.3333 100.622 33.68C101.208 34.0267 101.862 34.2 102.582 34.2ZM106.142 40V34.76L107.142 29.96L106.142 25.24V20.44H112.982V40H106.142ZM133.923 40L123.203 25.2L133.483 11.64H142.203L130.483 26.36V23.84L142.643 40H133.923ZM116.723 40V11.64H123.883V40H116.723Z" fill="white"/>
<defs>
<linearGradient id="paint0_linear_104_29" x1="258.1" y1="35.3345" x2="241.599" y2="86.7399" gradientUnits="userSpaceOnUse">
<stop stop-color="#DF8908"/>
<stop offset="1" stop-color="#B415FF"/>
</linearGradient>
</defs>
</svg>
