<svg width="109" height="57" viewBox="0 0 109 57" fill="none" xmlns="http://www.w3.org/2000/svg">
<g clip-path="url(#clip0_104_14)">
<path d="M79.071 36.4924C79.071 35.7135 79.7483 35.1076 80.5224 35.1939L103.828 37.7924C106.788 38.1225 109.293 35.6258 108.972 32.6642C108.639 29.5876 105.453 27.6862 102.587 28.8539L80.8707 37.7024C80.0113 38.0525 79.071 37.4203 79.071 36.4924Z" fill="url(#paint0_linear_104_14)"/>
<path d="M99.1163 38.1854L91.1349 27.1662L98.7887 17.0703H105.281L96.5551 28.0299V26.1537L105.609 38.1854H99.1163ZM86.3103 38.1854V17.0703H91.6412V38.1854H86.3103Z" fill="white"/>
<path d="M74.6794 38.483C73.3293 38.483 72.1282 38.1554 71.0759 37.5002C70.0236 36.845 69.1996 35.9516 68.604 34.8199C68.0084 33.6683 67.7106 32.3679 67.7106 30.9185C67.7106 29.4493 68.0084 28.1389 68.604 26.9873C69.1996 25.8358 70.0236 24.9423 71.0759 24.307C72.1282 23.6518 73.3293 23.3242 74.6794 23.3242C75.5927 23.3242 76.4266 23.493 77.1811 23.8305C77.9355 24.1482 78.551 24.6048 79.0275 25.2005C79.5239 25.7961 79.8217 26.4711 79.921 27.2256V34.5518C79.8217 35.3261 79.5239 36.0111 79.0275 36.6068C78.551 37.1825 77.9355 37.6392 77.1811 37.9767C76.4266 38.3142 75.5927 38.483 74.6794 38.483ZM75.7814 33.8669C76.6351 33.8669 77.3201 33.5889 77.8363 33.033C78.3723 32.4771 78.6404 31.7623 78.6404 30.8887C78.6404 30.3129 78.5212 29.8067 78.283 29.3699C78.0447 28.9331 77.7072 28.5856 77.2704 28.3275C76.8535 28.0694 76.3671 27.9403 75.8111 27.9403C75.2552 27.9403 74.7589 28.0694 74.3221 28.3275C73.9051 28.5856 73.5676 28.943 73.3095 29.3996C73.0712 29.8364 72.9521 30.3328 72.9521 30.8887C72.9521 31.4645 73.0712 31.9807 73.3095 32.4373C73.5477 32.8741 73.8853 33.2216 74.3221 33.4797C74.7589 33.7378 75.2453 33.8669 75.7814 33.8669ZM78.4319 38.1852V34.2838L79.1764 30.71L78.4319 27.1958V23.622H83.5245V38.1852H78.4319Z" fill="white"/>
<path d="M61.2776 38.1852V29.9655C61.2776 29.2904 61.079 28.7643 60.6819 28.3871C60.2849 27.99 59.7786 27.7914 59.1631 27.7914C58.7462 27.7914 58.3689 27.8808 58.0314 28.0595C57.7137 28.2382 57.4656 28.4863 57.2869 28.804C57.1082 29.1217 57.0188 29.5088 57.0188 29.9655L54.9937 29.0125C54.9937 27.8411 55.2518 26.8384 55.768 26.0046C56.2842 25.1508 56.989 24.4956 57.8825 24.039C58.7958 23.5625 59.8282 23.3242 60.9798 23.3242C62.032 23.3242 62.9652 23.5724 63.7792 24.0688C64.6131 24.5453 65.2683 25.1905 65.7448 26.0046C66.2213 26.8186 66.4596 27.7418 66.4596 28.7742V38.1852H61.2776ZM51.8369 38.1852V23.622H57.0188V38.1852H51.8369Z" fill="white"/>
<path d="M42.7295 38.5123C41.3596 38.5123 40.1385 38.2443 39.0664 37.7082C38.0141 37.1523 37.1803 36.3879 36.5648 35.415C35.9691 34.4223 35.6713 33.3006 35.6713 32.0497V23.6216H40.8533V32.0497C40.8533 32.4468 40.9327 32.7943 41.0916 33.0921C41.2504 33.3899 41.4688 33.6182 41.7467 33.7771C42.0247 33.9359 42.3523 34.0153 42.7295 34.0153C43.2855 34.0153 43.7322 33.8366 44.0697 33.4792C44.4271 33.1219 44.6058 32.6454 44.6058 32.0497V23.6216H49.7877V32.0497C49.7877 33.3204 49.4899 34.4422 48.8943 35.415C48.2987 36.3879 47.4648 37.1523 46.3927 37.7082C45.3404 38.2443 44.1193 38.5123 42.7295 38.5123Z" fill="white"/>
<path d="M26.4977 38.5132C24.9292 38.5132 23.5295 38.1857 22.2985 37.5305C21.0874 36.8554 20.1245 35.9421 19.4097 34.7906C18.695 33.6192 18.3376 32.3088 18.3376 30.8594C18.3376 29.41 18.685 28.1195 19.3799 26.9878C20.0947 25.8363 21.0676 24.9329 22.2985 24.2777C23.5295 23.6027 24.9193 23.2651 26.4679 23.2651C28.0166 23.2651 29.3964 23.6027 30.6076 24.2777C31.8385 24.9329 32.8114 25.8363 33.5261 26.9878C34.2409 28.1195 34.5983 29.41 34.5983 30.8594C34.5983 32.3088 34.2409 33.6192 33.5261 34.7906C32.8312 35.9421 31.8683 36.8554 30.6373 37.5305C29.4262 38.1857 28.0463 38.5132 26.4977 38.5132ZM26.4679 33.8971C27.0437 33.8971 27.5401 33.778 27.957 33.5397C28.3938 33.2816 28.7313 32.9243 28.9696 32.4676C29.2078 32.011 29.3269 31.4848 29.3269 30.8892C29.3269 30.2936 29.1979 29.7774 28.9398 29.3406C28.7015 28.8839 28.3739 28.5365 27.957 28.2982C27.5401 28.0401 27.0437 27.911 26.4679 27.911C25.912 27.911 25.4156 28.0401 24.9789 28.2982C24.5421 28.5563 24.2045 28.9137 23.9663 29.3703C23.728 29.8071 23.6089 30.3233 23.6089 30.919C23.6089 31.4947 23.728 32.011 23.9663 32.4676C24.2045 32.9243 24.5421 33.2816 24.9789 33.5397C25.4156 33.778 25.912 33.8971 26.4679 33.8971Z" fill="white"/>
<path d="M5.51083 29.6381V25.8261H9.53133C10.4049 25.8261 11.07 25.6176 11.5267 25.2007C12.0032 24.7639 12.2414 24.1782 12.2414 23.4435C12.2414 22.7288 12.0032 22.153 11.5267 21.7162C11.07 21.2596 10.4049 21.0312 9.53133 21.0312H5.51083V17.0703H10.2759C11.7054 17.0703 12.9562 17.3383 14.0283 17.8744C15.1203 18.4105 15.9741 19.1451 16.5895 20.0782C17.205 21.0114 17.5128 22.1034 17.5128 23.3542C17.5128 24.605 17.1951 25.7069 16.5598 26.6599C15.9443 27.5931 15.0806 28.3277 13.9688 28.8638C12.8569 29.38 11.5565 29.6381 10.0674 29.6381H5.51083ZM1.28186 38.1854V17.0703H6.61274V38.1854H1.28186ZM12.7179 38.1854L6.58296 29.1318L11.3778 27.9703L18.8827 38.1854H12.7179Z" fill="white"/>
</g>
<defs>
<linearGradient id="paint0_linear_104_14" x1="191.571" y1="34.7117" x2="179.285" y2="72.9849" gradientUnits="userSpaceOnUse">
<stop stop-color="#DF8908"/>
<stop offset="1" stop-color="#B415FF"/>
</linearGradient>
<clipPath id="clip0_104_14">
<rect width="109" height="57" fill="white"/>
</clipPath>
</defs>
</svg>
